HIERARCHY
ROOT hip
{
  OFFSET 0 0 0
  CHANNELS 6 Xposition Yposition Zposition Zrotation Yrotation Xrotation
  JOINT abdomen
  {
    OFFSET 0 20.6881 -0.73152
    CHANNELS 3 Zrotation Xrotation Yrotation
    JOINT chest
    {
      OFFSET 0 11.7043 -0.48768
      CHANNELS 3 Zrotation Xrotation Yrotation
      JOINT neck
      {
        OFFSET 0 22.1894 -2.19456
        CHANNELS 3 Zrotation Xrotation Yrotation
        JOINT head
        {
          OFFSET -0.24384 7.07133 1.2192
          CHANNELS 3 Zrotation Xrotation Yrotation
          JOINT leftEye
          {
            OFFSET 4.14528 8.04674 8.04672
            CHANNELS 3 Zrotation Xrotation Yrotation
            End Site
            {
              OFFSET 1 0 0
            }
          }
          JOINT rightEye
          {
            OFFSET -3.6576 8.04674 8.04672
            CHANNELS 3 Zrotation Xrotation Yrotation
            End Site
            {
              OFFSET 1 0 0
            }
          }
        }
      }
      JOINT rCollar
      {
        OFFSET -2.68224 19.2634 -4.8768
        CHANNELS 3 Zrotation Xrotation Yrotation
        JOINT rShldr
        {
          OFFSET -8.77824 -1.95073 1.46304
          CHANNELS 3 Zrotation Xrotation Yrotation
          JOINT rForeArm
          {
            OFFSET -28.1742 -1.7115 0.48768
            CHANNELS 3 Zrotation Xrotation Yrotation
            JOINT rHand
            {
              OFFSET -22.5879 0.773209 7.07136
              CHANNELS 3 Zrotation Xrotation Yrotation
              JOINT rThumb1
              {
                OFFSET -1.2192 -0.487915 3.41376
                CHANNELS 3 Zrotation Xrotation Yrotation
                JOINT rThumb2
                {
                  OFFSET -3.37035 -0.52449 3.41376
                  CHANNELS 3 Zrotation Xrotation Yrotation
                  End Site
                  {
                    OFFSET -1.78271 -1.18214 1.43049
                  }
                }
              }
              JOINT rIndex1
              {
                OFFSET -7.75947 0.938293 5.60832
                CHANNELS 3 Zrotation Xrotation Yrotation
                JOINT rIndex2
                {
                  OFFSET -2.54057 -0.884171 1.56538
                  CHANNELS 3 Zrotation Xrotation Yrotation
                  End Site
                  {
                    OFFSET -1.62519 -0.234802 1.16502
                  }
                }
              }
              JOINT rMid1
              {
                OFFSET -8.24714 1.18213 3.41376
                CHANNELS 3 Zrotation Xrotation Yrotation
                JOINT rMid2
                {
                  OFFSET -3.10165 -0.590103 1.0647
                  CHANNELS 3 Zrotation Xrotation Yrotation
                  End Site
                  {
                    OFFSET -2.48547 -0.328903 0.83742
                  }
                }
              }
              JOINT rRing1
              {
                OFFSET -8.82822 0.546677 1.51678
                CHANNELS 3 Zrotation Xrotation Yrotation
                JOINT rRing2
                {
                  OFFSET -2.60934 -0.819778 -0.0198488
                  CHANNELS 3 Zrotation Xrotation Yrotation
                  End Site
                  {
                    OFFSET -2.33842 -0.294052 0.168128
                  }
                }
              }
              JOINT rPinky1
              {
                OFFSET -8.27202 -0.0477905 -0.4584
                CHANNELS 3 Zrotation Xrotation Yrotation
                JOINT rPinky2
                {
                  OFFSET -1.82734 -0.647385 -0.700984
                  CHANNELS 3 Zrotation Xrotation Yrotation
                  End Site
                  {
                    OFFSET -1.69225 -0.51767 -0.607171
                  }
                }
              }
            }
          }
        }
      }
      JOINT lCollar
      {
        OFFSET 2.68224 19.2634 -4.8768
        CHANNELS 3 Zrotation Xrotation Yrotation
        JOINT lShldr
        {
          OFFSET 8.77824 -1.95073 1.46304
          CHANNELS 3 Zrotation Xrotation Yrotation
          JOINT lForeArm
          {
            OFFSET 28.1742 -1.7115 0.48768
            CHANNELS 3 Zrotation Xrotation Yrotation
            JOINT lHand
            {
              OFFSET 22.5879 0.773209 7.07136
              CHANNELS 3 Zrotation Xrotation Yrotation
              JOINT lThumb1
              {
                OFFSET 1.2192 -0.487915 3.41376
                CHANNELS 3 Zrotation Xrotation Yrotation
                JOINT lThumb2
                {
                  OFFSET 3.37035 -0.52449 3.41376
                  CHANNELS 3 Zrotation Xrotation Yrotation
                  End Site
                  {
                    OFFSET 1.78271 -1.18214 1.43049
                  }
                }
              }
              JOINT lIndex1
              {
                OFFSET 7.75947 0.938293 5.60832
                CHANNELS 3 Zrotation Xrotation Yrotation
                JOINT lIndex2
                {
                  OFFSET 2.54057 -0.884171 1.56538
                  CHANNELS 3 Zrotation Xrotation Yrotation
                  End Site
                  {
                    OFFSET 1.62519 -0.234802 1.16502
                  }
                }
              }
              JOINT lMid1
              {
                OFFSET 8.24714 1.18213 3.41376
                CHANNELS 3 Zrotation Xrotation Yrotation
                JOINT lMid2
                {
                  OFFSET 3.10165 -0.590103 1.0647
                  CHANNELS 3 Zrotation Xrotation Yrotation
                  End Site
                  {
                    OFFSET 2.48547 -0.328903 0.83742
                  }
                }
              }
              JOINT lRing1
              {
                OFFSET 8.82822 0.546677 1.51678
                CHANNELS 3 Zrotation Xrotation Yrotation
                JOINT lRing2
                {
                  OFFSET 2.60934 -0.819778 -0.0198488
                  CHANNELS 3 Zrotation Xrotation Yrotation
                  End Site
                  {
                    OFFSET 2.33842 -0.294052 0.168128
                  }
                }
              }
              JOINT lPinky1
              {
                OFFSET 8.27202 -0.0477905 -0.4584
                CHANNELS 3 Zrotation Xrotation Yrotation
                JOINT lPinky2
                {
                  OFFSET 1.82734 -0.647385 -0.700984
                  CHANNELS 3 Zrotation Xrotation Yrotation
                  End Site
                  {
                    OFFSET 1.69225 -0.51767 -0.607171
                  }
                }
              }
            }
          }
        }
      }
    }
  }
  JOINT rButtock
  {
    OFFSET -8.77824 4.35084 1.2192
    CHANNELS 3 Zrotation Xrotation Yrotation
    JOINT rThigh
    {
      OFFSET 0 -1.70687 -2.19456
      CHANNELS 3 Zrotation Xrotation Yrotation
      JOINT rShin
      {
        OFFSET 0 -36.8199 0.73152
        CHANNELS 3 Zrotation Xrotation Yrotation
        JOINT rFoot
        {
          OFFSET 0.73152 -45.1104 -5.12064
          CHANNELS 3 Zrotation Xrotation Yrotation
          End Site
          {
            OFFSET -1.1221 -3.69964 12.103
          }
        }
      }
    }
  }
  JOINT lButtock
  {
    OFFSET 8.77824 4.35084 1.2192
    CHANNELS 3 Zrotation Xrotation Yrotation
    JOINT lThigh
    {
      OFFSET 0 -1.70687 -2.19456
      CHANNELS 3 Zrotation Xrotation Yrotation
      JOINT lShin
      {
        OFFSET 0 -36.8199 0.73152
        CHANNELS 3 Zrotation Xrotation Yrotation
        JOINT lFoot
        {
          OFFSET -0.73152 -45.1104 -5.12064
          CHANNELS 3 Zrotation Xrotation Yrotation
          End Site
          {
            OFFSET 1.1221 -3.69964 12.103
          }
        }
      }
    }
  }
}
MOTION
Frames:	9
Frame Time:	0.00833333
41.5713 80.3214 -99.3341 8.0441 51.0674 15.3063 -6.16831 27.0054 -12.1981 2.44829 -8.28221 -3.39737 3.11695 10.2073 -1.45448 -1.95295 -31.7611 -3.8209 -0.0 0.0 0.0 -0.0 0.0 0.0 -3.25419e-14 -8.72852e-14 -3.84657e-13 94.1783 37.8925 -41.3125 -20.1747 -13.233 39.1053 -0.0149631 -3.4393 -0.483964 -2.44357e-09 1.04636e-09 3.99314e-11 -4.22257e-09 1.80543e-09 7.27634e-11 -2.44357e-09 1.04636e-09 3.99053e-11 7.73091 5.47488 0.417314 -2.44357e-09 1.04636e-09 3.99326e-11 2.90554 0.965183 0.102902 -2.44357e-09 1.04636e-09 3.99334e-11 10.2786 0.731801 0.0259123 -2.44357e-09 1.04636e-09 3.99438e-11 2.22167 -0.733487 -0.20892 -3.26475e-14 -8.72478e-14 -3.84938e-13 -56.3228 27.0723 2.12662 27.8107 -29.5915 -66.6205 0.019432 3.99494 -0.56236 -3.45246e-09 -5.21129e-09 6.00449e-09 -5.94472e-09 -8.96963e-09 1.0381e-08 -3.45246e-09 -5.21129e-09 6.00451e-09 -7.73091 5.47488 -0.417314 -3.45246e-09 -5.21129e-09 6.00448e-09 -2.90554 0.965183 -0.102902 -3.45248e-09 -5.21129e-09 6.00448e-09 -10.2786 0.731801 -0.0259123 -3.45246e-09 -5.2113e-09 6.00448e-09 -2.22167 -0.733487 0.20892 -2.03217e-16 0.0 -3.88251e-19 -3.90608 -38.1788 1.78238 -0.209552 32.1227 0.746967 -3.02277 -5.44083 -12.015 2.03217e-16 0.0 3.88251e-19 4.97232 -6.14519 6.68099 -0.107193 19.6522 -1.03464 -0.865929 -13.9225 -5.10353
42.0428 80.2946 -98.7569 8.2227 51.0068 15.5528 -5.75596 26.7884 -12.3365 2.59269 -8.23672 -3.40391 3.37568 10.2349 -1.42236 -3.06916 -31.9398 -4.10558 -0.0 0.0 0.0 -0.0 0.0 0.0 -1.447e-13 -2.50661e-14 7.09103e-15 93.7286 37.3085 -41.3659 -20.0534 -13.0781 38.8122 -0.0182423 -3.80513 -0.535587 -3.15399e-11 -5.72813e-10 8.78347e-10 -5.92284e-11 -9.95901e-10 1.52715e-09 -3.15369e-11 -5.72813e-10 8.78326e-10 7.73091 5.47488 0.417314 -3.15389e-11 -5.72814e-10 8.78346e-10 2.90554 0.965183 0.102902 -3.15362e-11 -5.72816e-10 8.78345e-10 10.2786 0.731801 0.0259123 -3.15443e-11 -5.72812e-10 8.78354e-10 2.22167 -0.733487 -0.20892 -1.44743e-13 -2.50275e-14 6.85189e-15 -56.8518 27.41 2.51055 27.8648 -29.8669 -67.0556 0.0163545 3.67854 -0.517686 -1.60278e-09 -2.7105e-09 1.7192e-09 -2.76153e-09 -4.67038e-09 2.97339e-09 -1.60278e-09 -2.7105e-09 1.71922e-09 -7.73091 5.47488 -0.417314 -1.60278e-09 -2.7105e-09 1.7192e-09 -2.90554 0.965183 -0.102902 -1.60279e-09 -2.7105e-09 1.7192e-09 -10.2786 0.731801 -0.0259123 -1.60277e-09 -2.71051e-09 1.7192e-09 -2.22167 -0.733487 0.20892 -2.03217e-16 0.0 -3.88251e-19 -4.24148 -37.9205 0.843671 -0.211012 32.2786 0.752066 -3.2126 -4.99672 -13.316 2.03217e-16 0.0 3.88251e-19 5.07369 -5.89622 6.69963 -0.115272 19.8543 -1.03222 -0.954677 -13.614 -5.57108
42.4943 80.242 -98.1639 8.3137 50.9478 15.7287 -5.27022 26.5788 -12.4224 2.738 -8.19091 -3.39163 3.64076 10.2657 -1.40314 -4.21724 -32.14 -4.42978 -0.0 0.0 0.0 -0.0 0.0 0.0 -2.55267e-13 4.53037e-14 4.07283e-13 93.2216 36.6945 -41.3052 -19.9087 -12.896 38.4629 -0.0203571 -4.04409 -0.569326 2.45256e-09 -2.19576e-09 1.72099e-09 4.22882e-09 -3.80345e-09 2.98848e-09 2.45256e-09 -2.19576e-09 1.72097e-09 7.73091 5.47488 0.417314 2.45256e-09 -2.19576e-09 1.72098e-09 2.90554 0.965183 0.102902 2.45257e-09 -2.19576e-09 1.72098e-09 10.2786 0.731801 0.0259123 2.45256e-09 -2.19576e-09 1.72099e-09 2.22167 -0.733487 -0.20892 -2.55248e-13 4.53423e-14 4.07093e-13 -57.5213 27.7478 2.95189 27.903 -30.0643 -67.3566 0.0136975 3.3614 -0.472951 3.19344e-10 -1.27311e-10 -2.66833e-09 5.46106e-10 -2.2993e-10 -4.61089e-09 3.19341e-10 -1.2731e-10 -2.66832e-09 -7.73091 5.47488 -0.417314 3.19344e-10 -1.27315e-10 -2.66833e-09 -2.90554 0.965183 -0.102902 3.19337e-10 -1.27315e-10 -2.66834e-09 -10.2786 0.731801 -0.0259123 3.19351e-10 -1.27314e-10 -2.66834e-09 -2.22167 -0.733487 0.20892 -2.03217e-16 0.0 -3.88251e-19 -4.45239 -37.6649 -0.00494631 -0.214197 32.5204 0.753759 -3.33897 -4.68139 -14.2476 2.03217e-16 0.0 3.88251e-19 5.28565 -5.83014 6.7546 -0.120619 20.3739 -1.02892 -1.05567 -13.2979 -6.07741
42.9224 80.1717 -97.5548 8.2921 50.8878 15.8198 -4.64702 26.3893 -12.4499 2.86579 -8.15085 -3.35599 3.89655 10.2904 -1.3922 -5.35064 -32.3484 -4.77116 -0.0 0.0 0.0 -0.0 0.0 0.0 -3.05345e-13 7.79057e-14 6.26718e-13 92.6424 36.0496 -41.1023 -19.7377 -12.6854 38.0469 -0.0206147 -4.09538 -0.57656 3.81732e-09 -3.09564e-09 2.21613e-09 6.58485e-09 -5.36024e-09 3.84703e-09 3.81732e-09 -3.09564e-09 2.21612e-09 7.73091 5.47488 0.417314 3.81732e-09 -3.09564e-09 2.21612e-09 2.90554 0.965183 0.102902 3.81733e-09 -3.09564e-09 2.21612e-09 10.2786 0.731801 0.0259123 3.81731e-09 -3.09564e-09 2.21612e-09 2.22167 -0.733487 -0.20892 -3.05292e-13 7.79416e-14 6.26569e-13 -58.3151 28.1051 3.44113 27.9213 -30.162 -67.5073 0.0118144 3.10179 -0.436358 1.35882e-09 1.22716e-09 -5.10444e-09 2.33417e-09 2.09658e-09 -8.82172e-09 1.35882e-09 1.22716e-09 -5.10443e-09 -7.73091 5.47488 -0.417314 1.35882e-09 1.22716e-09 -5.10443e-09 -2.90554 0.965183 -0.102902 1.35882e-09 1.22716e-09 -5.10444e-09 -10.2786 0.731801 -0.0259123 1.35883e-09 1.22716e-09 -5.10444e-09 -2.22167 -0.733487 0.20892 -2.03217e-16 0.0 -3.88251e-19 -4.46104 -37.4341 -0.700812 -0.217325 32.7605 0.753443 -3.42655 -4.55366 -14.8273 2.03217e-16 0.0 3.88251e-19 5.66062 -5.99524 6.82428 -0.116219 21.2762 -1.02484 -1.16438 -12.9158 -6.60399
43.3259 80.0885 -96.9258 8.1166 50.8238 15.7918 -3.85431 26.2198 -12.4187 2.98361 -8.1199 -3.29451 4.14098 10.3107 -1.39181 -6.48635 -32.5736 -5.14024 -0.0 0.0 0.0 -0.0 0.0 0.0 -2.68677e-13 4.79048e-14 5.90399e-13 91.9968 35.3529 -40.7642 -19.5373 -12.4414 37.5658 -0.0196332 -3.95128 -0.556209 3.56366e-09 -2.96028e-09 2.23717e-09 6.14752e-09 -5.12626e-09 3.88274e-09 3.56366e-09 -2.96029e-09 2.23716e-09 7.73091 5.47488 0.417314 3.56366e-09 -2.96029e-09 2.23716e-09 2.90554 0.965183 0.102902 3.56367e-09 -2.96029e-09 2.23716e-09 10.2786 0.731801 0.0259123 3.56365e-09 -2.96028e-09 2.23717e-09 2.22167 -0.733487 -0.20892 -2.68633e-13 4.79342e-14 5.90284e-13 -59.2628 28.4767 3.98395 27.9188 -30.1555 -67.5121 0.0102263 2.86085 -0.402416 1.09274e-09 7.14939e-10 -4.66976e-09 1.87424e-09 1.2109e-09 -8.06975e-09 1.09274e-09 7.14938e-10 -4.66975e-09 -7.73091 5.47488 -0.417314 1.09274e-09 7.14934e-10 -4.66975e-09 -2.90554 0.965183 -0.102902 1.09274e-09 7.14934e-10 -4.66976e-09 -10.2786 0.731801 -0.0259123 1.09275e-09 7.14937e-10 -4.66976e-09 -2.22167 -0.733487 0.20892 -2.03217e-16 0.0 -3.88251e-19 -4.23834 -37.2524 -1.22089 -0.220479 33.0131 0.751032 -3.47301 -4.67793 -14.9329 2.03217e-16 0.0 3.88251e-19 6.23688 -6.43699 6.92982 -0.100846 22.64 -1.01905 -1.29156 -12.4931 -7.1766
43.6981 79.9875 -96.287 7.771 50.7495 15.635 -2.93019 26.0645 -12.3318 3.09709 -8.09424 -3.21001 4.38171 10.3303 -1.40329 -7.6409 -32.8179 -5.54428 -0.0 0.0 0.0 -0.0 0.0 0.0 -1.80192e-13 -1.60124e-14 4.07412e-13 91.3003 34.6069 -40.3098 -19.3069 -12.1634 37.0244 -0.0176139 -3.64137 -0.512474 2.38746e-09 -2.21678e-09 1.98264e-09 4.11804e-09 -3.84016e-09 3.43995e-09 2.38746e-09 -2.21679e-09 1.98263e-09 7.73091 5.47488 0.417314 2.38746e-09 -2.21679e-09 1.98263e-09 2.90554 0.965183 0.102902 2.38747e-09 -2.21679e-09 1.98263e-09 10.2786 0.731801 0.0259123 2.38745e-09 -2.21679e-09 1.98263e-09 2.22167 -0.733487 -0.20892 -1.80183e-13 -1.59922e-14 4.07332e-13 -60.3643 28.8542 4.58404 27.8994 -30.0584 -67.3747 0.00883698 2.62566 -0.369297 8.65564e-11 -8.68595e-10 -2.5835e-09 1.39815e-10 -1.51862e-09 -4.46258e-09 8.65518e-11 -8.68597e-10 -2.58349e-09 -7.73091 5.47488 -0.417314 8.65564e-11 -8.68601e-10 -2.58349e-09 -2.90554 0.965183 -0.102902 8.65506e-11 -8.686e-10 -2.58349e-09 -10.2786 0.731801 -0.0259123 8.65599e-11 -8.68597e-10 -2.5835e-09 -2.22167 -0.733487 0.20892 -2.03217e-16 0.0 -3.88251e-19 -3.834 -37.1058 -1.60403 -0.224349 33.3121 0.745905 -3.47483 -5.00638 -14.5979 2.03217e-16 0.0 3.88251e-19 6.98124 -7.1184 7.07485 -0.0783565 24.41 -1.0124 -1.43268 -12.0474 -7.79445
44.046 79.8771 -95.6318 7.2546 50.6532 15.349 -1.91587 25.9277 -12.189 3.18488 -8.0691 -3.10603 4.6177 10.3423 -1.42051 -8.76562 -33.0596 -5.95529 -0.0 0.0 0.0 -0.0 0.0 0.0 -7.27721e-14 -7.94818e-14 1.6469e-13 90.5532 33.8428 -39.7283 -19.0469 -11.8564 36.4184 -0.0137501 -3.16087 -0.444706 8.89726e-10 -1.24722e-09 1.58847e-09 1.53354e-09 -2.16298e-09 2.75554e-09 8.89735e-10 -1.24722e-09 1.58847e-09 7.73091 5.47488 0.417314 8.89729e-10 -1.24722e-09 1.58846e-09 2.90554 0.965183 0.102902 8.89737e-10 -1.24723e-09 1.58847e-09 10.2786 0.731801 0.0259123 8.89719e-10 -1.24722e-09 1.58847e-09 2.22167 -0.733487 -0.20892 -7.28017e-14 -7.9472e-14 1.64634e-13 -61.5599 29.2532 5.22927 27.8647 -29.8734 -67.0794 0.00803249 2.49331 -0.35066 -1.13227e-09 -2.68454e-09 2.10276e-13 -1.9603e-09 -4.64714e-09 4.47142e-12 -1.13227e-09 -2.68454e-09 2.16438e-13 -7.73091 5.47488 -0.417314 -1.13227e-09 -2.68455e-09 2.09555e-13 -2.90554 0.965183 -0.102902 -1.13227e-09 -2.68454e-09 2.13052e-13 -10.2786 0.731801 -0.0259123 -1.13227e-09 -2.68454e-09 2.02838e-13 -2.22167 -0.733487 0.20892 -2.03217e-16 0.0 -3.88251e-19 -3.28853 -36.959 -1.8805 -0.228086 33.6008 0.738648 -3.45123 -5.42923 -14.0732 2.03217e-16 0.0 3.88251e-19 7.8379 -7.96426 7.21159 -0.0491185 26.4508 -1.00779 -1.55793 -11.5091 -8.39912
44.3743 79.7646 -94.9622 6.5828 50.5244 14.9474 -0.852688 25.8138 -11.9899 3.2256 -8.03972 -2.98605 4.84784 10.34 -1.43735 -9.81056 -33.277 -6.34457 -0.0 0.0 0.0 -0.0 0.0 0.0 2.06988e-14 -1.08139e-13 -5.08392e-14 89.7558 33.0907 -39.0071 -18.7578 -11.5254 35.7434 -0.00770206 -2.50497 -0.352277 -3.28524e-10 -4.33656e-10 1.19062e-09 -5.68853e-10 -7.55732e-10 2.06636e-09 -3.28516e-10 -4.3366e-10 1.19062e-09 7.73091 5.47488 0.417314 -3.28522e-10 -4.33661e-10 1.19062e-09 2.90554 0.965183 0.102902 -3.28514e-10 -4.33662e-10 1.19062e-09 10.2786 0.731801 0.0259123 -3.28533e-10 -4.33659e-10 1.19063e-09 2.22167 -0.733487 -0.20892 2.06497e-14 -1.08139e-13 -5.08889e-14 -62.7903 29.6892 5.90789 27.8142 -29.6008 -66.6121 0.00805023 2.56092 -0.360155 -2.03626e-09 -3.894e-09 1.92723e-09 -3.5173e-09 -6.72987e-09 3.33611e-09 -2.03627e-09 -3.894e-09 1.92723e-09 -7.73091 5.47488 -0.417314 -2.03626e-09 -3.894e-09 1.92722e-09 -2.90554 0.965183 -0.102902 -2.03627e-09 -3.894e-09 1.92723e-09 -10.2786 0.731801 -0.0259123 -2.03626e-09 -3.894e-09 1.92722e-09 -2.22167 -0.733487 0.20892 -2.03217e-16 0.0 -3.88251e-19 -2.64101 -36.7762 -2.07969 -0.230886 33.8222 0.729857 -3.42838 -5.83523 -13.6093 2.03217e-16 0.0 3.88251e-19 8.74769 -8.89977 7.29154 -0.0130027 28.6268 -1.00808 -1.63676 -10.8095 -8.93252
44.689 79.6501 -94.2835 5.7927 50.3525 14.4563 0.29994 25.7167 -11.7308 3.20752 -7.99728 -2.84774 5.06803 10.3127 -1.45319 -10.7618 -33.4675 -6.70763 -0.0 0.0 0.0 -0.0 0.0 0.0 1.09904e-13 -8.19811e-14 -2.57782e-13 88.907 32.3334 -38.1234 -18.4278 -11.1571 34.9789 -0.00260249 -1.65939 -0.233153 -1.23841e-09 2.31114e-10 6.36102e-10 -2.14006e-09 3.94127e-10 1.10853e-09 -1.2384e-09 2.31111e-10 6.36094e-10 7.73091 5.47488 0.417314 -1.23841e-09 2.3111e-10 6.36094e-10 2.90554 0.965183 0.102902 -1.2384e-09 2.31109e-10 6.36102e-10 10.2786 0.731801 0.0259123 -1.23842e-09 2.31112e-10 6.36109e-10 2.22167 -0.733487 -0.20892 1.0987e-13 -8.19919e-14 -2.57855e-13 -64.0593 30.171 6.62301 27.7356 -29.2083 -65.973 0.00985395 2.89263 -0.406867 -2.49731e-09 -4.18858e-09 2.96413e-09 -4.30995e-09 -7.23457e-09 5.12837e-09 -2.49731e-09 -4.18858e-09 2.96414e-09 -7.73091 5.47488 -0.417314 -2.4973e-09 -4.18858e-09 2.96413e-09 -2.90554 0.965183 -0.102902 -2.49731e-09 -4.18858e-09 2.96413e-09 -10.2786 0.731801 -0.0259123 -2.49731e-09 -4.18858e-09 2.96412e-09 -2.22167 -0.733487 0.20892 -2.03217e-16 0.0 -3.88251e-19 -1.84591 -36.5578 -2.17506 -0.232577 33.9607 0.719341 -3.41494 -6.21123 -13.2512 2.03217e-16 0.0 3.88251e-19 9.74564 -9.9435 7.30515 0.0331822 30.9695 -1.01422 -1.65405 -9.88182 -9.37632
